<svg width="117" height="62" viewBox="0 0 117 62" fill="none" xmlns="http://www.w3.org/2000/svg">
<path d="M72.2418 1.33066V1.58066H72.4918H109.029C109.321 1.58066 109.61 1.63784 109.879 1.7489C110.149 1.85996 110.394 2.02271 110.6 2.22778C110.806 2.43285 110.97 2.67623 111.081 2.94398C111.193 3.21173 111.25 3.49866 111.25 3.78839V53.5408C111.25 54.1259 111.017 54.6873 110.6 55.1015C110.184 55.5156 109.618 55.7486 109.029 55.7486H19.2368C18.6472 55.7486 18.082 55.5156 17.6655 55.1015C17.2491 54.6873 17.0154 54.1259 17.0154 53.5408V3.78839C17.0154 3.49866 17.0728 3.21173 17.1843 2.94398C17.2958 2.67623 17.4593 2.43285 17.6655 2.22778C17.8718 2.02271 18.1166 1.85996 18.3863 1.7489C18.6559 1.63784 18.9449 1.58066 19.2368 1.58066H55.9245H56.1745V1.33066V0.831787H72.2418V1.33066Z" fill="#F2F3F4" stroke="#BDC1C7" stroke-width="0.5"/>
<path d="M20.3289 5.92407H107.937V54.8499H20.3289V5.92407Z" fill="#E2E5EA" stroke="#BDC1C7" stroke-width="0.5"/>
<path d="M64.0572 4.32635C64.5563 4.32635 64.9609 3.92401 64.9609 3.4277C64.9609 2.93139 64.5563 2.52905 64.0572 2.52905C63.5582 2.52905 63.1536 2.93139 63.1536 3.4277C63.1536 3.92401 63.5582 4.32635 64.0572 4.32635Z" fill="#FCBF4C"/>
<path opacity="0.1" d="M82.9894 55.1001H20.0789V5.67432L82.9894 55.1001Z" fill="url(#paint0_linear_4105_4510)"/>
<path d="M92.8457 30.6541H84.6155V31.9109H92.8457V30.6541Z" fill="#BDC1C7"/>
<path d="M102.796 19.0149H74.6654V19.4339H102.796V19.0149Z" fill="#BDC1C7"/>
<path d="M102.796 21.3359H74.6654V21.7549H102.796V21.3359Z" fill="#BDC1C7"/>
<path d="M102.796 23.6567H74.6654V24.0757H102.796V23.6567Z" fill="#BDC1C7"/>
<path d="M102.796 25.9778H74.6654V26.3967H102.796V25.9778Z" fill="#BDC1C7"/>
<path d="M102.796 28.2988H74.6654V28.7178H102.796V28.2988Z" fill="#BDC1C7"/>
<path d="M102.796 6.677H99.3562V10.0974H102.796V6.677Z" fill="#F2F2F2"/>
<path d="M104.392 11.6853H100.216V7.53198H104.392V11.6853ZM100.397 11.5048H104.211V7.71257H100.397V11.5048Z" fill="#96999F"/>
<mask id="path-13-inside-1_4105_4510" fill="white">
<path d="M113.974 54.2014H105.375V53.5853C105.375 53.5692 105.372 53.5534 105.366 53.5385C105.36 53.5237 105.351 53.5103 105.339 53.4989C105.328 53.4876 105.314 53.4786 105.299 53.4724C105.285 53.4663 105.269 53.4631 105.252 53.4631H102.304C102.288 53.4631 102.272 53.4663 102.257 53.4724C102.242 53.4786 102.229 53.4876 102.217 53.4989C102.206 53.5103 102.197 53.5237 102.191 53.5385C102.185 53.5534 102.181 53.5692 102.181 53.5853V54.2014H100.339V53.5853C100.339 53.5692 100.336 53.5534 100.33 53.5385C100.323 53.5237 100.314 53.5103 100.303 53.4989C100.291 53.4876 100.278 53.4786 100.263 53.4724C100.248 53.4663 100.232 53.4631 100.216 53.4631H97.2679C97.2517 53.4631 97.2358 53.4663 97.2209 53.4724C97.206 53.4786 97.1924 53.4876 97.181 53.4989C97.1696 53.5103 97.1606 53.5237 97.1544 53.5385C97.1482 53.5534 97.145 53.5692 97.145 53.5853V54.2014H95.3024V53.5853C95.3024 53.5692 95.2993 53.5534 95.2931 53.5385C95.2869 53.5237 95.2779 53.5103 95.2665 53.4989C95.2551 53.4876 95.2415 53.4786 95.2266 53.4724C95.2117 53.4663 95.1957 53.4631 95.1796 53.4631H92.2315C92.2153 53.4631 92.1994 53.4663 92.1845 53.4724C92.1695 53.4786 92.156 53.4876 92.1446 53.4989C92.1332 53.5103 92.1241 53.5237 92.118 53.5385C92.1118 53.5534 92.1086 53.5692 92.1086 53.5853V54.2014H90.266V53.5853C90.266 53.5692 90.2628 53.5534 90.2567 53.5385C90.2505 53.5237 90.2414 53.5103 90.23 53.4989C90.2186 53.4876 90.2051 53.4786 90.1902 53.4724C90.1753 53.4663 90.1593 53.4631 90.1432 53.4631H87.195C87.1789 53.4631 87.1629 53.4663 87.148 53.4724C87.1331 53.4786 87.1196 53.4876 87.1082 53.4989C87.0968 53.5103 87.0877 53.5237 87.0815 53.5385C87.0754 53.5534 87.0722 53.5692 87.0722 53.5853V54.2014H85.2296V53.5853C85.2296 53.5692 85.2264 53.5534 85.2203 53.5385C85.2141 53.5237 85.205 53.5103 85.1936 53.4989C85.1822 53.4876 85.1687 53.4786 85.1538 53.4724C85.1389 53.4663 85.1229 53.4631 85.1068 53.4631H82.1586C82.1425 53.4631 82.1265 53.4663 82.1116 53.4724C82.0967 53.4786 82.0832 53.4876 82.0718 53.4989C82.0604 53.5103 82.0513 53.5237 82.0451 53.5385C82.039 53.5534 82.0358 53.5692 82.0358 53.5853V54.2014H80.1932V53.5853C80.1932 53.5692 80.19 53.5534 80.1838 53.5385C80.1777 53.5237 80.1686 53.5103 80.1572 53.4989C80.1458 53.4876 80.1323 53.4786 80.1174 53.4724C80.1025 53.4663 80.0865 53.4631 80.0703 53.4631H77.1222C77.1061 53.4631 77.0901 53.4663 77.0752 53.4724C77.0603 53.4786 77.0467 53.4876 77.0353 53.4989C77.0239 53.5103 77.0149 53.5237 77.0087 53.5385C77.0025 53.5534 76.9994 53.5692 76.9994 53.5853V54.2014H75.1568V53.5853C75.1568 53.5692 75.1536 53.5534 75.1474 53.5385C75.1412 53.5237 75.1322 53.5103 75.1208 53.4989C75.1094 53.4876 75.0958 53.4786 75.0809 53.4724C75.066 53.4663 75.0501 53.4631 75.0339 53.4631H51.9401C51.924 53.4631 51.908 53.4663 51.8931 53.4724C51.8782 53.4786 51.8647 53.4876 51.8532 53.4989C51.8418 53.5103 51.8328 53.5237 51.8266 53.5385C51.8204 53.5534 51.8173 53.5692 51.8173 53.5853V54.2014H49.9747V53.5853C49.9747 53.5692 49.9715 53.5534 49.9653 53.5385C49.9592 53.5237 49.9501 53.5103 49.9387 53.4989C49.9273 53.4876 49.9138 53.4786 49.8988 53.4724C49.8839 53.4663 49.868 53.4631 49.8518 53.4631H46.9037C46.8876 53.4631 46.8716 53.4663 46.8567 53.4724C46.8418 53.4786 46.8282 53.4876 46.8168 53.4989C46.8054 53.5103 46.7964 53.5237 46.7902 53.5385C46.784 53.5534 46.7809 53.5692 46.7809 53.5853V54.2014H44.9383V53.5853C44.9383 53.5692 44.9351 53.5534 44.9289 53.5385C44.9227 53.5237 44.9137 53.5103 44.9023 53.4989C44.8909 53.4876 44.8773 53.4786 44.8624 53.4724C44.8475 53.4663 44.8315 53.4631 44.8154 53.4631H41.8673C41.8511 53.4631 41.8352 53.4663 41.8203 53.4724C41.8054 53.4786 41.7918 53.4876 41.7804 53.4989C41.769 53.5103 41.76 53.5237 41.7538 53.5385C41.7476 53.5534 41.7444 53.5692 41.7444 53.5853V54.2014H39.9018V53.5853C39.9018 53.5692 39.8987 53.5534 39.8925 53.5385C39.8863 53.5237 39.8773 53.5103 39.8659 53.4989C39.8545 53.4876 39.8409 53.4786 39.826 53.4724C39.8111 53.4663 39.7951 53.4631 39.779 53.4631H36.8309C36.8147 53.4631 36.7987 53.4663 36.7838 53.4724C36.7689 53.4786 36.7554 53.4876 36.744 53.4989C36.7326 53.5103 36.7235 53.5237 36.7174 53.5385C36.7112 53.5534 36.708 53.5692 36.708 53.5853V54.2014H34.8654V53.5853C34.8654 53.5692 34.8623 53.5534 34.8561 53.5385C34.8499 53.5237 34.8409 53.5103 34.8295 53.4989C34.818 53.4876 34.8045 53.4786 34.7896 53.4724C34.7747 53.4663 34.7587 53.4631 34.7426 53.4631H31.7944C31.7783 53.4631 31.7623 53.4663 31.7474 53.4724C31.7325 53.4786 31.719 53.4876 31.7076 53.4989C31.6962 53.5103 31.6871 53.5237 31.6809 53.5385C31.6748 53.5534 31.6716 53.5692 31.6716 53.5853V54.2014H29.829V53.5853C29.829 53.5692 29.8258 53.5534 29.8197 53.5385C29.8135 53.5237 29.8044 53.5103 29.793 53.4989C29.7816 53.4876 29.7681 53.4786 29.7532 53.4724C29.7383 53.4663 29.7223 53.4631 29.7062 53.4631H26.758C26.7419 53.4631 26.7259 53.4663 26.711 53.4724C26.6961 53.4786 26.6826 53.4876 26.6712 53.4989C26.6598 53.5103 26.6507 53.5237 26.6445 53.5385C26.6384 53.5534 26.6352 53.5692 26.6352 53.5853V54.2014H24.7926V53.5853C24.7926 53.5692 24.7894 53.5534 24.7832 53.5385C24.7771 53.5237 24.768 53.5103 24.7566 53.4989C24.7452 53.4876 24.7317 53.4786 24.7168 53.4724C24.7019 53.4663 24.6859 53.4631 24.6697 53.4631H21.7216C21.7055 53.4631 21.6895 53.4663 21.6746 53.4724C21.6597 53.4786 21.6461 53.4876 21.6347 53.4989C21.6233 53.5103 21.6143 53.5237 21.6081 53.5385C21.6019 53.5534 21.5988 53.5692 21.5988 53.5853V54.2014H15.9481C15.1663 54.2014 14.4164 54.5103 13.8635 55.0601C13.3106 55.6099 13 56.3556 13 57.1331V58.4588C13 59.2364 13.3106 59.9821 13.8635 60.5319C14.4164 61.0817 15.1663 61.3906 15.9481 61.3906H113.974C114.756 61.3906 115.506 61.0817 116.059 60.5319C116.612 59.9821 116.922 59.2364 116.922 58.4588V57.1331C116.922 56.3556 116.612 55.6099 116.059 55.0601C115.506 54.5103 114.756 54.2014 113.974 54.2014Z"/>
</mask>
<path d="M113.974 54.2014H105.375V53.5853C105.375 53.5692 105.372 53.5534 105.366 53.5385C105.36 53.5237 105.351 53.5103 105.339 53.4989C105.328 53.4876 105.314 53.4786 105.299 53.4724C105.285 53.4663 105.269 53.4631 105.252 53.4631H102.304C102.288 53.4631 102.272 53.4663 102.257 53.4724C102.242 53.4786 102.229 53.4876 102.217 53.4989C102.206 53.5103 102.197 53.5237 102.191 53.5385C102.185 53.5534 102.181 53.5692 102.181 53.5853V54.2014H100.339V53.5853C100.339 53.5692 100.336 53.5534 100.33 53.5385C100.323 53.5237 100.314 53.5103 100.303 53.4989C100.291 53.4876 100.278 53.4786 100.263 53.4724C100.248 53.4663 100.232 53.4631 100.216 53.4631H97.2679C97.2517 53.4631 97.2358 53.4663 97.2209 53.4724C97.206 53.4786 97.1924 53.4876 97.181 53.4989C97.1696 53.5103 97.1606 53.5237 97.1544 53.5385C97.1482 53.5534 97.145 53.5692 97.145 53.5853V54.2014H95.3024V53.5853C95.3024 53.5692 95.2993 53.5534 95.2931 53.5385C95.2869 53.5237 95.2779 53.5103 95.2665 53.4989C95.2551 53.4876 95.2415 53.4786 95.2266 53.4724C95.2117 53.4663 95.1957 53.4631 95.1796 53.4631H92.2315C92.2153 53.4631 92.1994 53.4663 92.1845 53.4724C92.1695 53.4786 92.156 53.4876 92.1446 53.4989C92.1332 53.5103 92.1241 53.5237 92.118 53.5385C92.1118 53.5534 92.1086 53.5692 92.1086 53.5853V54.2014H90.266V53.5853C90.266 53.5692 90.2628 53.5534 90.2567 53.5385C90.2505 53.5237 90.2414 53.5103 90.23 53.4989C90.2186 53.4876 90.2051 53.4786 90.1902 53.4724C90.1753 53.4663 90.1593 53.4631 90.1432 53.4631H87.195C87.1789 53.4631 87.1629 53.4663 87.148 53.4724C87.1331 53.4786 87.1196 53.4876 87.1082 53.4989C87.0968 53.5103 87.0877 53.5237 87.0815 53.5385C87.0754 53.5534 87.0722 53.5692 87.0722 53.5853V54.2014H85.2296V53.5853C85.2296 53.5692 85.2264 53.5534 85.2203 53.5385C85.2141 53.5237 85.205 53.5103 85.1936 53.4989C85.1822 53.4876 85.1687 53.4786 85.1538 53.4724C85.1389 53.4663 85.1229 53.4631 85.1068 53.4631H82.1586C82.1425 53.4631 82.1265 53.4663 82.1116 53.4724C82.0967 53.4786 82.0832 53.4876 82.0718 53.4989C82.0604 53.5103 82.0513 53.5237 82.0451 53.5385C82.039 53.5534 82.0358 53.5692 82.0358 53.5853V54.2014H80.1932V53.5853C80.1932 53.5692 80.19 53.5534 80.1838 53.5385C80.1777 53.5237 80.1686 53.5103 80.1572 53.4989C80.1458 53.4876 80.1323 53.4786 80.1174 53.4724C80.1025 53.4663 80.0865 53.4631 80.0703 53.4631H77.1222C77.1061 53.4631 77.0901 53.4663 77.0752 53.4724C77.0603 53.4786 77.0467 53.4876 77.0353 53.4989C77.0239 53.5103 77.0149 53.5237 77.0087 53.5385C77.0025 53.5534 76.9994 53.5692 76.9994 53.5853V54.2014H75.1568V53.5853C75.1568 53.5692 75.1536 53.5534 75.1474 53.5385C75.1412 53.5237 75.1322 53.5103 75.1208 53.4989C75.1094 53.4876 75.0958 53.4786 75.0809 53.4724C75.066 53.4663 75.0501 53.4631 75.0339 53.4631H51.9401C51.924 53.4631 51.908 53.4663 51.8931 53.4724C51.8782 53.4786 51.8647 53.4876 51.8532 53.4989C51.8418 53.5103 51.8328 53.5237 51.8266 53.5385C51.8204 53.5534 51.8173 53.5692 51.8173 53.5853V54.2014H49.9747V53.5853C49.9747 53.5692 49.9715 53.5534 49.9653 53.5385C49.9592 53.5237 49.9501 53.5103 49.9387 53.4989C49.9273 53.4876 49.9138 53.4786 49.8988 53.4724C49.8839 53.4663 49.868 53.4631 49.8518 53.4631H46.9037C46.8876 53.4631 46.8716 53.4663 46.8567 53.4724C46.8418 53.4786 46.8282 53.4876 46.8168 53.4989C46.8054 53.5103 46.7964 53.5237 46.7902 53.5385C46.784 53.5534 46.7809 53.5692 46.7809 53.5853V54.2014H44.9383V53.5853C44.9383 53.5692 44.9351 53.5534 44.9289 53.5385C44.9227 53.5237 44.9137 53.5103 44.9023 53.4989C44.8909 53.4876 44.8773 53.4786 44.8624 53.4724C44.8475 53.4663 44.8315 53.4631 44.8154 53.4631H41.8673C41.8511 53.4631 41.8352 53.4663 41.8203 53.4724C41.8054 53.4786 41.7918 53.4876 41.7804 53.4989C41.769 53.5103 41.76 53.5237 41.7538 53.5385C41.7476 53.5534 41.7444 53.5692 41.7444 53.5853V54.2014H39.9018V53.5853C39.9018 53.5692 39.8987 53.5534 39.8925 53.5385C39.8863 53.5237 39.8773 53.5103 39.8659 53.4989C39.8545 53.4876 39.8409 53.4786 39.826 53.4724C39.8111 53.4663 39.7951 53.4631 39.779 53.4631H36.8309C36.8147 53.4631 36.7987 53.4663 36.7838 53.4724C36.7689 53.4786 36.7554 53.4876 36.744 53.4989C36.7326 53.5103 36.7235 53.5237 36.7174 53.5385C36.7112 53.5534 36.708 53.5692 36.708 53.5853V54.2014H34.8654V53.5853C34.8654 53.5692 34.8623 53.5534 34.8561 53.5385C34.8499 53.5237 34.8409 53.5103 34.8295 53.4989C34.818 53.4876 34.8045 53.4786 34.7896 53.4724C34.7747 53.4663 34.7587 53.4631 34.7426 53.4631H31.7944C31.7783 53.4631 31.7623 53.4663 31.7474 53.4724C31.7325 53.4786 31.719 53.4876 31.7076 53.4989C31.6962 53.5103 31.6871 53.5237 31.6809 53.5385C31.6748 53.5534 31.6716 53.5692 31.6716 53.5853V54.2014H29.829V53.5853C29.829 53.5692 29.8258 53.5534 29.8197 53.5385C29.8135 53.5237 29.8044 53.5103 29.793 53.4989C29.7816 53.4876 29.7681 53.4786 29.7532 53.4724C29.7383 53.4663 29.7223 53.4631 29.7062 53.4631H26.758C26.7419 53.4631 26.7259 53.4663 26.711 53.4724C26.6961 53.4786 26.6826 53.4876 26.6712 53.4989C26.6598 53.5103 26.6507 53.5237 26.6445 53.5385C26.6384 53.5534 26.6352 53.5692 26.6352 53.5853V54.2014H24.7926V53.5853C24.7926 53.5692 24.7894 53.5534 24.7832 53.5385C24.7771 53.5237 24.768 53.5103 24.7566 53.4989C24.7452 53.4876 24.7317 53.4786 24.7168 53.4724C24.7019 53.4663 24.6859 53.4631 24.6697 53.4631H21.7216C21.7055 53.4631 21.6895 53.4663 21.6746 53.4724C21.6597 53.4786 21.6461 53.4876 21.6347 53.4989C21.6233 53.5103 21.6143 53.5237 21.6081 53.5385C21.6019 53.5534 21.5988 53.5692 21.5988 53.5853V54.2014H15.9481C15.1663 54.2014 14.4164 54.5103 13.8635 55.0601C13.3106 55.6099 13 56.3556 13 57.1331V58.4588C13 59.2364 13.3106 59.9821 13.8635 60.5319C14.4164 61.0817 15.1663 61.3906 15.9481 61.3906H113.974C114.756 61.3906 115.506 61.0817 116.059 60.5319C116.612 59.9821 116.922 59.2364 116.922 58.4588V57.1331C116.922 56.3556 116.612 55.6099 116.059 55.0601C115.506 54.5103 114.756 54.2014 113.974 54.2014Z" fill="#E2E5EA" stroke="#BDC1C7" mask="url(#path-13-inside-1_4105_4510)"/>
<path d="M35.9152 48.2396C33.8042 48.2396 31.7407 47.6171 29.9855 46.4508C28.2303 45.2845 26.8623 43.6269 26.0545 41.6875C25.2467 39.7481 25.0353 37.614 25.4472 35.5551C25.859 33.4962 26.8755 31.605 28.3681 30.1207C29.8608 28.6363 31.7626 27.6254 33.8329 27.2159C35.9033 26.8064 38.0493 27.0166 39.9996 27.8199C41.9498 28.6232 43.6167 29.9836 44.7895 31.7291C45.9623 33.4745 46.5883 35.5265 46.5883 37.6258C46.5851 40.4397 45.4595 43.1375 43.4586 45.1273C41.4577 47.1171 38.7449 48.2364 35.9152 48.2396ZM35.9152 27.2913C33.8598 27.2913 31.8505 27.8974 30.1416 29.033C28.4326 30.1685 27.1006 31.7825 26.314 33.6709C25.5274 35.5593 25.3216 37.6372 25.7226 39.6419C26.1236 41.6466 27.1134 43.488 28.5668 44.9333C30.0201 46.3786 31.8718 47.3629 33.8877 47.7617C35.9036 48.1604 37.9932 47.9558 39.8921 47.1736C41.791 46.3914 43.4141 45.0668 44.556 43.3673C45.6979 41.6678 46.3074 39.6697 46.3074 37.6258C46.3043 34.8858 45.2084 32.259 43.2601 30.3216C41.3119 28.3842 38.6704 27.2944 35.9152 27.2913Z" fill="#3F3D56"/>
<path d="M33.8648 51.4014C38.5423 51.4014 42.334 47.6307 42.334 42.9793C42.334 38.3279 38.5423 34.5571 33.8648 34.5571C29.1874 34.5571 25.3956 38.3279 25.3956 42.9793C25.3956 47.6307 29.1874 51.4014 33.8648 51.4014Z" fill="url(#paint1_linear_4105_4510)"/>
<defs>
<linearGradient id="paint0_linear_4105_4510" x1="51.5341" y1="5.67432" x2="51.5341" y2="55.1001" gradientUnits="userSpaceOnUse">
<stop stop-color="#0033CC"/>
<stop offset="1" stop-color="#0033CC" stop-opacity="0"/>
</linearGradient>
<linearGradient id="paint1_linear_4105_4510" x1="33.8648" y1="34.5571" x2="33.8648" y2="51.4014" gradientUnits="userSpaceOnUse">
<stop stop-color="#3B6BFF"/>
<stop offset="0.453125" stop-color="#A6BCFF"/>
<stop offset="0.84375" stop-color="#E4E9FB"/>
<stop offset="1" stop-color="white"/>
</linearGradient>
</defs>
</svg>
