<?xml version="1.0" encoding="UTF-8"?>
<svg width="1000px" height="1000px" viewBox="0 0 1000 1000" version="1.1" xmlns="http://www.w3.org/2000/svg" xmlns:xlink="http://www.w3.org/1999/xlink">
    <title>Artboard</title>
    <g id="Artboard" stroke="none" stroke-width="1" fill="none" fill-rule="evenodd">
        <g id="SVG-Layer" transform="translate(0.000000, 47.000000)" fill="#090B45" fill-rule="nonzero">
            <path d="M250,0 C222.386906,0 200.002761,22.5610266 200,50.3888889 L200,100.777778 L50,100.777778 C22.3869062,100.78056 0,123.338804 0,151.166667 L0,755.833333 C0,783.661197 22.3869062,806.219441 50,806.222222 L200,806.222222 L200,856.611111 C200.002761,884.438975 222.386906,907 250,907 L750,907 C777.613095,907 799.99724,884.438975 800,856.611111 L800,806.222222 L950,806.222222 C977.613095,806.219441 1000,783.661197 1000,755.833333 L1000,151.166667 C1000,123.338804 977.613095,100.78056 950,100.777778 L800,100.777778 L800,50.3888889 C799.99724,22.5610266 777.613095,0 750,0 L250,0 Z M300,100.777778 L700,100.777778 L700,142.702905 C699.10755,148.144472 699.10755,153.696778 700,159.138345 L700,747.369562 C699.10755,752.811129 699.10755,758.36344 700,763.805007 L700,806.222222 L300,806.222222 L300,764.297105 C300.892452,758.855538 300.892452,753.303227 300,747.86166 L300,159.630428 C300.892452,154.188861 300.892452,148.636555 300,143.194988 L300,100.777778 Z M100,201.555556 L200,201.555556 L200,705.444444 L100,705.444444 L100,201.555556 Z M800,201.555556 L900,201.555556 L900,705.444444 L800,705.444444 L800,201.555556 Z" id="Shape"></path>
        </g>
    </g>
</svg>