<svg width="70" height="69" viewBox="0 0 70 69" fill="none" xmlns="http://www.w3.org/2000/svg">
<path fill-rule="evenodd" clip-rule="evenodd" d="M35.029 0C15.6589 0 0 15.6455 0 35.0011C0 50.4731 10.0332 63.5698 23.9518 68.2052C25.692 68.5537 26.3294 67.4521 26.3294 66.5254C26.3294 65.714 26.2721 62.9327 26.2721 60.0347C16.5279 62.1212 14.4987 55.8623 14.4987 55.8623C12.9328 51.8058 10.6125 50.7633 10.6125 50.7633C7.42324 48.6191 10.8448 48.6191 10.8448 48.6191C14.3826 48.851 16.2389 52.2119 16.2389 52.2119C19.3701 57.5428 24.4157 56.0365 26.4456 55.1092C26.7353 52.8491 27.6638 51.2846 28.6497 50.4155C20.878 49.6041 12.7012 46.5909 12.7012 33.1464C12.7012 29.3218 14.0922 26.1927 16.2963 23.7591C15.9485 22.8901 14.7303 19.2966 16.6447 14.487C16.6447 14.487 19.6024 13.5597 26.2714 18.0798C29.1266 17.3137 32.0711 16.9239 35.029 16.9206C37.9866 16.9206 41.0017 17.3267 43.7858 18.0798C50.4555 13.5597 53.4132 14.487 53.4132 14.487C55.3276 19.2966 54.1087 22.8901 53.7609 23.7591C56.0231 26.1927 57.3568 29.3218 57.3568 33.1464C57.3568 46.5909 49.1799 49.5458 41.3501 50.4155C42.6264 51.5164 43.7278 53.6022 43.7278 56.9056C43.7278 61.5992 43.6704 65.3662 43.6704 66.5247C43.6704 67.4521 44.3085 68.5537 46.048 68.2059C59.9667 63.5691 69.9998 50.4731 69.9998 35.0011C70.0572 15.6455 54.341 0 35.029 0Z" fill="white"/>
</svg>
