<svg width="162" height="164" viewBox="0 0 162 164" fill="none" xmlns="http://www.w3.org/2000/svg">
<path d="M82.0354 104.434C82.0354 127.078 81.3503 164 80.505 164C79.6598 164 78.9746 127.078 78.9746 104.434C78.9746 81.7903 79.6598 82 80.505 82C81.3503 82 82.0354 81.7903 82.0354 104.434Z" fill="url(#paint0_linear_4480_7044)"/>
<path d="M82.0354 59.566C82.0354 36.9224 81.3503 0 80.505 0C79.6598 0 78.9746 36.9224 78.9746 59.566C78.9746 82.2097 79.6598 82 80.505 82C81.3503 82 82.0354 82.2097 82.0354 59.566Z" fill="url(#paint1_linear_4480_7044)"/>
<path d="M102.084 80.4525C124.482 80.4525 161.005 81.1452 161.005 81.9997C161.005 82.8542 124.482 83.5469 102.084 83.5469C79.6851 83.5469 79.8926 82.8542 79.8926 81.9997C79.8926 81.1452 79.6851 80.4525 102.084 80.4525Z" fill="url(#paint2_linear_4480_7044)"/>
<path d="M58.9261 80.4525C36.5276 80.4525 0.00499725 81.1452 0.00499725 81.9997C0.00499725 82.8542 36.5276 83.5469 58.9261 83.5469C81.3246 83.5469 81.1172 82.8542 81.1172 81.9997C81.1172 81.1452 81.3246 80.4525 58.9261 80.4525Z" fill="url(#paint3_linear_4480_7044)"/>
<path d="M65.5627 64.7085C49.7246 48.697 23.4147 23.0788 22.817 23.683C22.2194 24.2872 47.5602 50.8851 63.3984 66.8966C79.2365 82.9081 79.5743 82.27 80.172 81.6658C80.7697 81.0615 81.4009 80.72 65.5627 64.7085Z" fill="url(#paint4_linear_4480_7044)"/>
<path d="M97.7484 66.8971C113.587 50.8856 138.927 24.2877 138.33 23.6835C137.732 23.0793 111.422 48.6976 95.584 64.7091C79.7459 80.7206 80.3771 81.0621 80.9747 81.6663C81.5724 82.2705 81.9102 82.9086 97.7484 66.8971Z" fill="url(#paint5_linear_4480_7044)"/>
<path d="M96.8304 95.6967C112.669 111.708 138.009 138.306 137.412 138.91C136.814 139.514 110.504 113.896 94.6661 97.8847C78.8279 81.8732 79.4591 81.5317 80.0568 80.9275C80.6544 80.3233 80.9923 79.6852 96.8304 95.6967Z" fill="url(#paint6_linear_4480_7044)"/>
<path d="M64.318 95.6967C48.4799 111.708 23.139 138.306 23.7367 138.91C24.3343 139.514 50.6442 113.896 66.4824 97.8847C82.3205 81.8732 81.6893 81.5317 81.0917 80.9275C80.494 80.3233 80.1562 79.6852 64.318 95.6967Z" fill="url(#paint7_linear_4480_7044)"/>
<defs>
<linearGradient id="paint0_linear_4480_7044" x1="81.332" y1="78.5" x2="64.8514" y2="81.1683" gradientUnits="userSpaceOnUse">
<stop stop-color="#1E293B"/>
<stop offset="1" stop-color="#475569"/>
</linearGradient>
<linearGradient id="paint1_linear_4480_7044" x1="81.332" y1="85.5" x2="64.8514" y2="82.8317" gradientUnits="userSpaceOnUse">
<stop stop-color="#1E293B"/>
<stop offset="1" stop-color="#475569"/>
</linearGradient>
<linearGradient id="paint2_linear_4480_7044" x1="76.4305" y1="81.1637" x2="79.1842" y2="97.8057" gradientUnits="userSpaceOnUse">
<stop stop-color="#1E293B"/>
<stop offset="1" stop-color="#475569"/>
</linearGradient>
<linearGradient id="paint3_linear_4480_7044" x1="84.5793" y1="81.1637" x2="81.8256" y2="97.8057" gradientUnits="userSpaceOnUse">
<stop stop-color="#1E293B"/>
<stop offset="1" stop-color="#475569"/>
</linearGradient>
<linearGradient id="paint4_linear_4480_7044" x1="83.2048" y1="83.5495" x2="69.5514" y2="93.2558" gradientUnits="userSpaceOnUse">
<stop stop-color="#1E293B"/>
<stop offset="1" stop-color="#475569"/>
</linearGradient>
<linearGradient id="paint5_linear_4480_7044" x1="79.1114" y1="84.7323" x2="69.2305" y2="71.1326" gradientUnits="userSpaceOnUse">
<stop stop-color="#1E293B"/>
<stop offset="1" stop-color="#475569"/>
</linearGradient>
<linearGradient id="paint6_linear_4480_7044" x1="78.1934" y1="77.8615" x2="68.3125" y2="91.4611" gradientUnits="userSpaceOnUse">
<stop stop-color="#1E293B"/>
<stop offset="1" stop-color="#475569"/>
</linearGradient>
<linearGradient id="paint7_linear_4480_7044" x1="82.955" y1="77.8615" x2="92.8359" y2="91.4611" gradientUnits="userSpaceOnUse">
<stop stop-color="#1E293B"/>
<stop offset="1" stop-color="#475569"/>
</linearGradient>
</defs>
</svg>
