<svg width="162" height="164" viewBox="0 0 162 164" fill="none" xmlns="http://www.w3.org/2000/svg">
<path d="M82.0337 104.434C82.0337 127.078 81.3485 164 80.5033 164C79.6581 164 78.9729 127.078 78.9729 104.434C78.9729 81.7903 79.6581 82 80.5033 82C81.3485 82 82.0337 81.7903 82.0337 104.434Z" fill="white"/>
<path d="M82.0337 59.566C82.0337 36.9224 81.3485 0 80.5033 0C79.6581 0 78.9729 36.9224 78.9729 59.566C78.9729 82.2097 79.6581 82 80.5033 82C81.3485 82 82.0337 82.2097 82.0337 59.566Z" fill="white"/>
<path d="M102.082 80.4528C124.48 80.4528 161.003 81.1455 161.003 81.9999C161.003 82.8544 124.48 83.5471 102.082 83.5471C79.6832 83.5471 79.8906 82.8544 79.8906 81.9999C79.8906 81.1455 79.6832 80.4528 102.082 80.4528Z" fill="white"/>
<path d="M58.9242 80.4528C36.5257 80.4528 0.00304413 81.1455 0.00304413 81.9999C0.00304413 82.8544 36.5257 83.5471 58.9242 83.5471C81.3227 83.5471 81.1152 82.8544 81.1152 81.9999C81.1152 81.1455 81.3227 80.4528 58.9242 80.4528Z" fill="white"/>
<path d="M65.5625 64.708C49.7243 48.6965 23.4145 23.0783 22.8168 23.6825C22.2191 24.2867 47.56 50.8846 63.3981 66.8961C79.2363 82.9076 79.5741 82.2695 80.1718 81.6653C80.7694 81.0611 81.4006 80.7195 65.5625 64.708Z" fill="white"/>
<path d="M97.7464 66.8964C113.585 50.8849 138.925 24.287 138.328 23.6828C137.73 23.0786 111.42 48.6968 95.5821 64.7083C79.7439 80.7198 80.3751 81.0613 80.9728 81.6655C81.5705 82.2698 81.9083 82.9079 97.7464 66.8964Z" fill="white"/>
<path d="M96.8287 95.6972C112.667 111.709 138.008 138.307 137.41 138.911C136.812 139.515 110.502 113.897 94.6644 97.8852C78.8262 81.8737 79.4574 81.5322 80.0551 80.928C80.6527 80.3238 80.9906 79.6857 96.8287 95.6972Z" fill="white"/>
<path d="M64.3166 95.6972C48.4784 111.709 23.1375 138.307 23.7352 138.911C24.3329 139.515 50.6428 113.897 66.4809 97.8852C82.319 81.8737 81.6879 81.5322 81.0902 80.928C80.4925 80.3238 80.1547 79.6857 64.3166 95.6972Z" fill="white"/>
</svg>
