<svg width="130" height="99" viewBox="0 0 130 99" fill="none" xmlns="http://www.w3.org/2000/svg">
<path d="M20 28.25H107.875C108.841 28.25 109.625 29.0335 109.625 30V88.125C109.625 89.0915 108.841 89.875 107.875 89.875H20C19.0335 89.875 18.25 89.0915 18.25 88.125V30C18.25 29.0335 19.0335 28.25 20 28.25Z" fill="url(#paint0_linear_4498_21450)" stroke="#E2E5EA" stroke-width="0.5"/>
<path d="M114.91 20.125H25.2149C24.926 20.1254 24.649 20.2423 24.4447 20.4501C24.2404 20.6578 24.1254 20.9394 24.125 21.2331V82.8919C24.125 83.0374 24.1532 83.1815 24.208 83.3159C24.2627 83.4504 24.343 83.5726 24.4442 83.6755C24.5454 83.7784 24.6656 83.86 24.7978 83.9157C24.93 83.9713 25.0718 84 25.2149 84H114.91C115.053 84 115.195 83.9713 115.327 83.9156C115.459 83.86 115.58 83.7783 115.681 83.6754C115.782 83.5725 115.862 83.4504 115.917 83.3159C115.972 83.1815 116 83.0374 116 82.8919V21.2331C116 20.9394 115.885 20.6578 115.68 20.4501C115.476 20.2423 115.199 20.1254 114.91 20.125ZM115.273 82.8919C115.274 82.9404 115.264 82.9885 115.246 83.0334C115.228 83.0783 115.201 83.1191 115.167 83.1534C115.134 83.1877 115.093 83.2149 115.049 83.2334C115.005 83.2519 114.958 83.2614 114.91 83.2612H25.2149C25.1672 83.2614 25.1198 83.2519 25.0757 83.2334C25.0316 83.2149 24.9914 83.1877 24.9577 83.1534C24.9239 83.1191 24.8972 83.0783 24.879 83.0334C24.8608 82.9885 24.8515 82.9404 24.8516 82.8919V21.2331C24.8518 21.1352 24.8901 21.0413 24.9582 20.9721C25.0263 20.9029 25.1186 20.8639 25.2149 20.8638H114.91C115.006 20.8639 115.099 20.9029 115.167 20.9721C115.235 21.0413 115.273 21.1352 115.273 21.2331V82.8919Z" fill="#24292F"/>
<path d="M69.0935 63.875H29.0315C28.738 63.875 28.5 64.0951 28.5 64.3665V67.7585C28.5 68.0299 28.738 68.25 29.0315 68.25H69.0935C69.387 68.25 69.625 68.0299 69.625 67.7585V64.3665C69.625 64.0951 69.387 63.875 69.0935 63.875Z" fill="#BDC1C7"/>
<path d="M107.062 59.5H94.3131C94.1735 59.5 94.0352 59.528 93.9062 59.5823C93.7773 59.6366 93.6601 59.7163 93.5614 59.8167C93.4626 59.9171 93.3843 60.0363 93.3309 60.1675C93.2775 60.2987 93.25 60.4393 93.25 60.5813V70.6687C93.25 70.8107 93.2775 70.9513 93.3309 71.0825C93.3843 71.2137 93.4626 71.3329 93.5613 71.4333C93.6601 71.5337 93.7773 71.6134 93.9062 71.6677C94.0352 71.722 94.1735 71.75 94.3131 71.75H107.062C107.202 71.75 107.34 71.722 107.469 71.6677C107.598 71.6134 107.715 71.5337 107.814 71.4333C107.912 71.3329 107.991 71.2137 108.044 71.0825C108.098 70.9513 108.125 70.8107 108.125 70.6687V60.5813C108.125 60.4393 108.097 60.2987 108.044 60.1675C107.991 60.0363 107.912 59.9171 107.814 59.8167C107.715 59.7163 107.598 59.6366 107.469 59.5823C107.34 59.528 107.202 59.5 107.062 59.5ZM107.416 70.6687C107.416 70.7642 107.379 70.8558 107.312 70.9234C107.246 70.9909 107.156 71.029 107.062 71.0291H94.3131C94.2191 71.029 94.1291 70.9909 94.0627 70.9234C93.9962 70.8558 93.9588 70.7642 93.9587 70.6687V60.5813C93.9586 60.534 93.9676 60.487 93.9854 60.4432C94.0031 60.3994 94.0292 60.3596 94.0622 60.3261C94.0951 60.2926 94.1342 60.2661 94.1773 60.248C94.2203 60.23 94.2665 60.2207 94.3131 60.2209H107.062C107.109 60.2207 107.155 60.23 107.198 60.248C107.241 60.2661 107.28 60.2926 107.313 60.3261C107.346 60.3596 107.372 60.3994 107.39 60.4432C107.407 60.487 107.416 60.534 107.416 60.5813V70.6687Z" fill="#BDC1C7"/>
<path d="M104.979 62.125H97.2708C96.9832 62.125 96.75 62.3504 96.75 62.6284V63.3716C96.75 63.6496 96.9832 63.875 97.2708 63.875H104.979C105.267 63.875 105.5 63.6496 105.5 63.3716V62.6284C105.5 62.3504 105.267 62.125 104.979 62.125Z" fill="#BDC1C7"/>
<path d="M104.979 64.75H97.2708C96.9832 64.75 96.75 64.9754 96.75 65.2534V65.9966C96.75 66.2746 96.9832 66.5 97.2708 66.5H104.979C105.267 66.5 105.5 66.2746 105.5 65.9966V65.2534C105.5 64.9754 105.267 64.75 104.979 64.75Z" fill="#BDC1C7"/>
<path d="M104.979 67.375H97.2708C96.9832 67.375 96.75 67.6004 96.75 67.8784V68.6216C96.75 68.8996 96.9832 69.125 97.2708 69.125H104.979C105.267 69.125 105.5 68.8996 105.5 68.6216V67.8784C105.5 67.6004 105.267 67.375 104.979 67.375Z" fill="#BDC1C7"/>
<path d="M48.0843 24.5H29.9157C29.6171 24.5 29.375 24.7341 29.375 25.0228V31.8522C29.375 32.1409 29.6171 32.375 29.9157 32.375H48.0843C48.3829 32.375 48.625 32.1409 48.625 31.8522V25.0228C48.625 24.7341 48.3829 24.5 48.0843 24.5Z" fill="#BDC1C7"/>
<path d="M40.75 28.875C40.75 30.3247 39.9665 31.5 39 31.5C38.0335 31.5 37.25 30.3247 37.25 28.875C37.25 27.4252 39 26.25 39 26.25C39 26.25 40.75 27.4253 40.75 28.875Z" fill="#F2F3F4"/>
<path d="M119.5 21.875C117.423 21.875 115.393 21.2592 113.667 20.1054C111.94 18.9517 110.594 17.3118 109.799 15.3932C109.005 13.4746 108.797 11.3634 109.202 9.32656C109.607 7.28976 110.607 5.41883 112.075 3.95038C113.544 2.48193 115.415 1.4819 117.452 1.07676C119.488 0.671614 121.6 0.87955 123.518 1.67427C125.437 2.46899 127.077 3.8148 128.23 5.54152C129.384 7.26823 130 9.2983 130 11.375C129.997 14.1588 128.89 16.8277 126.921 18.7961C124.953 20.7646 122.284 21.8719 119.5 21.875ZM119.5 1.25683C117.499 1.25683 115.543 1.85025 113.879 2.96205C112.215 4.07385 110.918 5.65409 110.152 7.50295C109.386 9.3518 109.186 11.3862 109.576 13.349C109.967 15.3117 110.93 17.1146 112.345 18.5296C113.76 19.9447 115.563 20.9084 117.526 21.2988C119.489 21.6892 121.523 21.4888 123.372 20.723C125.221 19.9572 126.801 18.6603 127.913 16.9964C129.025 15.3324 129.618 13.3762 129.618 11.375C129.615 8.69242 128.548 6.12057 126.651 4.2237C124.754 2.32682 122.183 1.25984 119.5 1.25683Z" fill="#96999F"/>
<path d="M113.812 26.25C118.403 26.25 122.125 22.5284 122.125 17.9375C122.125 13.3466 118.403 9.625 113.812 9.625C109.222 9.625 105.5 13.3466 105.5 17.9375C105.5 22.5284 109.222 26.25 113.812 26.25Z" fill="url(#paint1_linear_4498_21450)"/>
<path d="M4.875 98.875C7.29125 98.875 9.25 96.9162 9.25 94.5C9.25 92.0838 7.29125 90.125 4.875 90.125C2.45875 90.125 0.5 92.0838 0.5 94.5C0.5 96.9162 2.45875 98.875 4.875 98.875Z" fill="url(#paint2_linear_4498_21450)"/>
<defs>
<linearGradient id="paint0_linear_4498_21450" x1="63.9375" y1="28" x2="63.9375" y2="90.125" gradientUnits="userSpaceOnUse">
<stop stop-color="#F2F3F4"/>
<stop offset="1" stop-color="#F2F3F4" stop-opacity="0"/>
</linearGradient>
<linearGradient id="paint1_linear_4498_21450" x1="113.812" y1="9.625" x2="113.812" y2="26.25" gradientUnits="userSpaceOnUse">
<stop stop-color="#3B6BFF"/>
<stop offset="0.0001" stop-color="#0033CC"/>
<stop offset="0.3125" stop-color="#4875FF"/>
<stop offset="1" stop-color="#DCE3F9"/>
</linearGradient>
<linearGradient id="paint2_linear_4498_21450" x1="4.875" y1="90.125" x2="4.875" y2="98.875" gradientUnits="userSpaceOnUse">
<stop stop-color="#3B6BFF"/>
<stop offset="0.0001" stop-color="#0033CC"/>
<stop offset="0.3125" stop-color="#4875FF"/>
<stop offset="1" stop-color="#DCE3F9"/>
</linearGradient>
</defs>
</svg>
