<svg width="117" height="62" viewBox="0 0 117 62" fill="none" xmlns="http://www.w3.org/2000/svg">
<path d="M72.242 1.33091V1.58091H72.492H109.029C109.321 1.58091 109.61 1.63809 109.88 1.74915C110.149 1.86021 110.394 2.02295 110.6 2.22803C110.807 2.4331 110.97 2.67647 111.082 2.94423C111.193 3.21198 111.25 3.4989 111.25 3.78863V53.5411C111.25 54.1262 111.017 54.6876 110.6 55.1017C110.184 55.5159 109.619 55.7488 109.029 55.7488H19.2371C18.6475 55.7488 18.0823 55.5159 17.6658 55.1017C17.2493 54.6876 17.0156 54.1262 17.0156 53.5411V3.78863C17.0156 3.4989 17.073 3.21198 17.1845 2.94423C17.2961 2.67647 17.4596 2.4331 17.6658 2.22803C17.872 2.02295 18.1169 1.86021 18.3865 1.74915C18.6561 1.63809 18.9452 1.58091 19.2371 1.58091H55.9247H56.1747V1.33091V0.832031H72.242V1.33091Z" fill="#F2F3F4" stroke="#BDC1C7" stroke-width="0.5"/>
<path d="M20.3281 5.92578H107.936V54.8516H20.3281V5.92578Z" fill="#E2E5EA" stroke="#BDC1C7" stroke-width="0.5"/>
<path d="M64.058 4.32464C64.5571 4.32464 64.9616 3.92231 64.9616 3.42599C64.9616 2.92968 64.5571 2.52734 64.058 2.52734C63.5589 2.52734 63.1543 2.92968 63.1543 3.42599C63.1543 3.92231 63.5589 4.32464 64.058 4.32464Z" fill="#FCBF4C"/>
<path opacity="0.1" d="M82.9887 55.1016H20.0781V5.67578L82.9887 55.1016Z" fill="url(#paint0_linear_4498_21420)"/>
<path d="M92.8455 30.6523H84.6152V31.9092H92.8455V30.6523Z" fill="#BDC1C7"/>
<path d="M102.796 19.0156H74.666V19.4346H102.796V19.0156Z" fill="#BDC1C7"/>
<path d="M102.796 21.3359H74.666V21.7549H102.796V21.3359Z" fill="#BDC1C7"/>
<path d="M102.796 23.6562H74.666V24.0752H102.796V23.6562Z" fill="#BDC1C7"/>
<path d="M102.796 25.9766H74.666V26.3955H102.796V25.9766Z" fill="#BDC1C7"/>
<path d="M102.796 28.2969H74.666V28.7158H102.796V28.2969Z" fill="#BDC1C7"/>
<path d="M102.795 6.67578H99.3555V10.0962H102.795V6.67578Z" fill="#F2F2F2"/>
<path d="M104.393 11.6846H100.217V7.53125H104.393V11.6846ZM100.398 11.504H104.212V7.71184H100.398V11.504Z" fill="#96999F"/>
<mask id="path-13-inside-1_4498_21420" fill="white">
<path d="M113.974 54.2031H105.375V53.587C105.375 53.571 105.372 53.5551 105.366 53.5403C105.36 53.5254 105.351 53.512 105.339 53.5006C105.328 53.4893 105.314 53.4803 105.299 53.4741C105.285 53.468 105.269 53.4648 105.252 53.4648H102.304C102.288 53.4648 102.272 53.468 102.257 53.4741C102.242 53.4803 102.229 53.4893 102.217 53.5006C102.206 53.512 102.197 53.5254 102.191 53.5403C102.185 53.5551 102.181 53.571 102.181 53.587V54.2031H100.339V53.587C100.339 53.571 100.336 53.5551 100.33 53.5403C100.323 53.5254 100.314 53.512 100.303 53.5006C100.291 53.4893 100.278 53.4803 100.263 53.4741C100.248 53.468 100.232 53.4648 100.216 53.4648H97.2679C97.2517 53.4648 97.2358 53.468 97.2209 53.4741C97.206 53.4803 97.1924 53.4893 97.181 53.5006C97.1696 53.512 97.1606 53.5254 97.1544 53.5403C97.1482 53.5551 97.145 53.571 97.145 53.587V54.2031H95.3024V53.587C95.3024 53.571 95.2993 53.5551 95.2931 53.5403C95.2869 53.5254 95.2779 53.512 95.2665 53.5006C95.2551 53.4893 95.2415 53.4803 95.2266 53.4741C95.2117 53.468 95.1957 53.4648 95.1796 53.4648H92.2315C92.2153 53.4648 92.1994 53.468 92.1845 53.4741C92.1695 53.4803 92.156 53.4893 92.1446 53.5006C92.1332 53.512 92.1241 53.5254 92.118 53.5403C92.1118 53.5551 92.1086 53.571 92.1086 53.587V54.2031H90.266V53.587C90.266 53.571 90.2628 53.5551 90.2567 53.5403C90.2505 53.5254 90.2414 53.512 90.23 53.5006C90.2186 53.4893 90.2051 53.4803 90.1902 53.4741C90.1753 53.468 90.1593 53.4648 90.1432 53.4648H87.195C87.1789 53.4648 87.1629 53.468 87.148 53.4741C87.1331 53.4803 87.1196 53.4893 87.1082 53.5006C87.0968 53.512 87.0877 53.5254 87.0815 53.5403C87.0754 53.5551 87.0722 53.571 87.0722 53.587V54.2031H85.2296V53.587C85.2296 53.571 85.2264 53.5551 85.2203 53.5403C85.2141 53.5254 85.205 53.512 85.1936 53.5006C85.1822 53.4893 85.1687 53.4803 85.1538 53.4741C85.1389 53.468 85.1229 53.4648 85.1068 53.4648H82.1586C82.1425 53.4648 82.1265 53.468 82.1116 53.4741C82.0967 53.4803 82.0832 53.4893 82.0718 53.5006C82.0604 53.512 82.0513 53.5254 82.0451 53.5403C82.039 53.5551 82.0358 53.571 82.0358 53.587V54.2031H80.1932V53.587C80.1932 53.571 80.19 53.5551 80.1838 53.5403C80.1777 53.5254 80.1686 53.512 80.1572 53.5006C80.1458 53.4893 80.1323 53.4803 80.1174 53.4741C80.1025 53.468 80.0865 53.4648 80.0703 53.4648H77.1222C77.1061 53.4648 77.0901 53.468 77.0752 53.4741C77.0603 53.4803 77.0467 53.4893 77.0353 53.5006C77.0239 53.512 77.0149 53.5254 77.0087 53.5403C77.0025 53.5551 76.9994 53.571 76.9994 53.587V54.2031H75.1568V53.587C75.1568 53.571 75.1536 53.5551 75.1474 53.5403C75.1412 53.5254 75.1322 53.512 75.1208 53.5006C75.1094 53.4893 75.0958 53.4803 75.0809 53.4741C75.066 53.468 75.0501 53.4648 75.0339 53.4648H51.9401C51.924 53.4648 51.908 53.468 51.8931 53.4741C51.8782 53.4803 51.8647 53.4893 51.8532 53.5006C51.8418 53.512 51.8328 53.5254 51.8266 53.5403C51.8204 53.5551 51.8173 53.571 51.8173 53.587V54.2031H49.9747V53.587C49.9747 53.571 49.9715 53.5551 49.9653 53.5403C49.9592 53.5254 49.9501 53.512 49.9387 53.5006C49.9273 53.4893 49.9138 53.4803 49.8988 53.4741C49.8839 53.468 49.868 53.4648 49.8518 53.4648H46.9037C46.8876 53.4648 46.8716 53.468 46.8567 53.4741C46.8418 53.4803 46.8282 53.4893 46.8168 53.5006C46.8054 53.512 46.7964 53.5254 46.7902 53.5403C46.784 53.5551 46.7809 53.571 46.7809 53.587V54.2031H44.9383V53.587C44.9383 53.571 44.9351 53.5551 44.9289 53.5403C44.9227 53.5254 44.9137 53.512 44.9023 53.5006C44.8909 53.4893 44.8773 53.4803 44.8624 53.4741C44.8475 53.468 44.8315 53.4648 44.8154 53.4648H41.8673C41.8511 53.4648 41.8352 53.468 41.8203 53.4741C41.8054 53.4803 41.7918 53.4893 41.7804 53.5006C41.769 53.512 41.76 53.5254 41.7538 53.5403C41.7476 53.5551 41.7444 53.571 41.7444 53.587V54.2031H39.9018V53.587C39.9018 53.571 39.8987 53.5551 39.8925 53.5403C39.8863 53.5254 39.8773 53.512 39.8659 53.5006C39.8545 53.4893 39.8409 53.4803 39.826 53.4741C39.8111 53.468 39.7951 53.4648 39.779 53.4648H36.8309C36.8147 53.4648 36.7987 53.468 36.7838 53.4741C36.7689 53.4803 36.7554 53.4893 36.744 53.5006C36.7326 53.512 36.7235 53.5254 36.7174 53.5403C36.7112 53.5551 36.708 53.571 36.708 53.587V54.2031H34.8654V53.587C34.8654 53.571 34.8623 53.5551 34.8561 53.5403C34.8499 53.5254 34.8409 53.512 34.8295 53.5006C34.818 53.4893 34.8045 53.4803 34.7896 53.4741C34.7747 53.468 34.7587 53.4648 34.7426 53.4648H31.7944C31.7783 53.4648 31.7623 53.468 31.7474 53.4741C31.7325 53.4803 31.719 53.4893 31.7076 53.5006C31.6962 53.512 31.6871 53.5254 31.6809 53.5403C31.6748 53.5551 31.6716 53.571 31.6716 53.587V54.2031H29.829V53.587C29.829 53.571 29.8258 53.5551 29.8197 53.5403C29.8135 53.5254 29.8044 53.512 29.793 53.5006C29.7816 53.4893 29.7681 53.4803 29.7532 53.4741C29.7383 53.468 29.7223 53.4648 29.7062 53.4648H26.758C26.7419 53.4648 26.7259 53.468 26.711 53.4741C26.6961 53.4803 26.6826 53.4893 26.6712 53.5006C26.6598 53.512 26.6507 53.5254 26.6445 53.5403C26.6384 53.5551 26.6352 53.571 26.6352 53.587V54.2031H24.7926V53.587C24.7926 53.571 24.7894 53.5551 24.7832 53.5403C24.7771 53.5254 24.768 53.512 24.7566 53.5006C24.7452 53.4893 24.7317 53.4803 24.7168 53.4741C24.7019 53.468 24.6859 53.4648 24.6697 53.4648H21.7216C21.7055 53.4648 21.6895 53.468 21.6746 53.4741C21.6597 53.4803 21.6461 53.4893 21.6347 53.5006C21.6233 53.512 21.6143 53.5254 21.6081 53.5403C21.6019 53.5551 21.5988 53.571 21.5988 53.587V54.2031H15.9481C15.1663 54.2031 14.4164 54.512 13.8635 55.0618C13.3106 55.6116 13 56.3573 13 57.1349V58.4605C13 59.2381 13.3106 59.9838 13.8635 60.5336C14.4164 61.0834 15.1663 61.3923 15.9481 61.3923H113.974C114.756 61.3923 115.506 61.0834 116.059 60.5336C116.612 59.9838 116.922 59.2381 116.922 58.4605V57.1349C116.922 56.3573 116.612 55.6116 116.059 55.0618C115.506 54.512 114.756 54.2031 113.974 54.2031Z"/>
</mask>
<path d="M113.974 54.2031H105.375V53.587C105.375 53.571 105.372 53.5551 105.366 53.5403C105.36 53.5254 105.351 53.512 105.339 53.5006C105.328 53.4893 105.314 53.4803 105.299 53.4741C105.285 53.468 105.269 53.4648 105.252 53.4648H102.304C102.288 53.4648 102.272 53.468 102.257 53.4741C102.242 53.4803 102.229 53.4893 102.217 53.5006C102.206 53.512 102.197 53.5254 102.191 53.5403C102.185 53.5551 102.181 53.571 102.181 53.587V54.2031H100.339V53.587C100.339 53.571 100.336 53.5551 100.33 53.5403C100.323 53.5254 100.314 53.512 100.303 53.5006C100.291 53.4893 100.278 53.4803 100.263 53.4741C100.248 53.468 100.232 53.4648 100.216 53.4648H97.2679C97.2517 53.4648 97.2358 53.468 97.2209 53.4741C97.206 53.4803 97.1924 53.4893 97.181 53.5006C97.1696 53.512 97.1606 53.5254 97.1544 53.5403C97.1482 53.5551 97.145 53.571 97.145 53.587V54.2031H95.3024V53.587C95.3024 53.571 95.2993 53.5551 95.2931 53.5403C95.2869 53.5254 95.2779 53.512 95.2665 53.5006C95.2551 53.4893 95.2415 53.4803 95.2266 53.4741C95.2117 53.468 95.1957 53.4648 95.1796 53.4648H92.2315C92.2153 53.4648 92.1994 53.468 92.1845 53.4741C92.1695 53.4803 92.156 53.4893 92.1446 53.5006C92.1332 53.512 92.1241 53.5254 92.118 53.5403C92.1118 53.5551 92.1086 53.571 92.1086 53.587V54.2031H90.266V53.587C90.266 53.571 90.2628 53.5551 90.2567 53.5403C90.2505 53.5254 90.2414 53.512 90.23 53.5006C90.2186 53.4893 90.2051 53.4803 90.1902 53.4741C90.1753 53.468 90.1593 53.4648 90.1432 53.4648H87.195C87.1789 53.4648 87.1629 53.468 87.148 53.4741C87.1331 53.4803 87.1196 53.4893 87.1082 53.5006C87.0968 53.512 87.0877 53.5254 87.0815 53.5403C87.0754 53.5551 87.0722 53.571 87.0722 53.587V54.2031H85.2296V53.587C85.2296 53.571 85.2264 53.5551 85.2203 53.5403C85.2141 53.5254 85.205 53.512 85.1936 53.5006C85.1822 53.4893 85.1687 53.4803 85.1538 53.4741C85.1389 53.468 85.1229 53.4648 85.1068 53.4648H82.1586C82.1425 53.4648 82.1265 53.468 82.1116 53.4741C82.0967 53.4803 82.0832 53.4893 82.0718 53.5006C82.0604 53.512 82.0513 53.5254 82.0451 53.5403C82.039 53.5551 82.0358 53.571 82.0358 53.587V54.2031H80.1932V53.587C80.1932 53.571 80.19 53.5551 80.1838 53.5403C80.1777 53.5254 80.1686 53.512 80.1572 53.5006C80.1458 53.4893 80.1323 53.4803 80.1174 53.4741C80.1025 53.468 80.0865 53.4648 80.0703 53.4648H77.1222C77.1061 53.4648 77.0901 53.468 77.0752 53.4741C77.0603 53.4803 77.0467 53.4893 77.0353 53.5006C77.0239 53.512 77.0149 53.5254 77.0087 53.5403C77.0025 53.5551 76.9994 53.571 76.9994 53.587V54.2031H75.1568V53.587C75.1568 53.571 75.1536 53.5551 75.1474 53.5403C75.1412 53.5254 75.1322 53.512 75.1208 53.5006C75.1094 53.4893 75.0958 53.4803 75.0809 53.4741C75.066 53.468 75.0501 53.4648 75.0339 53.4648H51.9401C51.924 53.4648 51.908 53.468 51.8931 53.4741C51.8782 53.4803 51.8647 53.4893 51.8532 53.5006C51.8418 53.512 51.8328 53.5254 51.8266 53.5403C51.8204 53.5551 51.8173 53.571 51.8173 53.587V54.2031H49.9747V53.587C49.9747 53.571 49.9715 53.5551 49.9653 53.5403C49.9592 53.5254 49.9501 53.512 49.9387 53.5006C49.9273 53.4893 49.9138 53.4803 49.8988 53.4741C49.8839 53.468 49.868 53.4648 49.8518 53.4648H46.9037C46.8876 53.4648 46.8716 53.468 46.8567 53.4741C46.8418 53.4803 46.8282 53.4893 46.8168 53.5006C46.8054 53.512 46.7964 53.5254 46.7902 53.5403C46.784 53.5551 46.7809 53.571 46.7809 53.587V54.2031H44.9383V53.587C44.9383 53.571 44.9351 53.5551 44.9289 53.5403C44.9227 53.5254 44.9137 53.512 44.9023 53.5006C44.8909 53.4893 44.8773 53.4803 44.8624 53.4741C44.8475 53.468 44.8315 53.4648 44.8154 53.4648H41.8673C41.8511 53.4648 41.8352 53.468 41.8203 53.4741C41.8054 53.4803 41.7918 53.4893 41.7804 53.5006C41.769 53.512 41.76 53.5254 41.7538 53.5403C41.7476 53.5551 41.7444 53.571 41.7444 53.587V54.2031H39.9018V53.587C39.9018 53.571 39.8987 53.5551 39.8925 53.5403C39.8863 53.5254 39.8773 53.512 39.8659 53.5006C39.8545 53.4893 39.8409 53.4803 39.826 53.4741C39.8111 53.468 39.7951 53.4648 39.779 53.4648H36.8309C36.8147 53.4648 36.7987 53.468 36.7838 53.4741C36.7689 53.4803 36.7554 53.4893 36.744 53.5006C36.7326 53.512 36.7235 53.5254 36.7174 53.5403C36.7112 53.5551 36.708 53.571 36.708 53.587V54.2031H34.8654V53.587C34.8654 53.571 34.8623 53.5551 34.8561 53.5403C34.8499 53.5254 34.8409 53.512 34.8295 53.5006C34.818 53.4893 34.8045 53.4803 34.7896 53.4741C34.7747 53.468 34.7587 53.4648 34.7426 53.4648H31.7944C31.7783 53.4648 31.7623 53.468 31.7474 53.4741C31.7325 53.4803 31.719 53.4893 31.7076 53.5006C31.6962 53.512 31.6871 53.5254 31.6809 53.5403C31.6748 53.5551 31.6716 53.571 31.6716 53.587V54.2031H29.829V53.587C29.829 53.571 29.8258 53.5551 29.8197 53.5403C29.8135 53.5254 29.8044 53.512 29.793 53.5006C29.7816 53.4893 29.7681 53.4803 29.7532 53.4741C29.7383 53.468 29.7223 53.4648 29.7062 53.4648H26.758C26.7419 53.4648 26.7259 53.468 26.711 53.4741C26.6961 53.4803 26.6826 53.4893 26.6712 53.5006C26.6598 53.512 26.6507 53.5254 26.6445 53.5403C26.6384 53.5551 26.6352 53.571 26.6352 53.587V54.2031H24.7926V53.587C24.7926 53.571 24.7894 53.5551 24.7832 53.5403C24.7771 53.5254 24.768 53.512 24.7566 53.5006C24.7452 53.4893 24.7317 53.4803 24.7168 53.4741C24.7019 53.468 24.6859 53.4648 24.6697 53.4648H21.7216C21.7055 53.4648 21.6895 53.468 21.6746 53.4741C21.6597 53.4803 21.6461 53.4893 21.6347 53.5006C21.6233 53.512 21.6143 53.5254 21.6081 53.5403C21.6019 53.5551 21.5988 53.571 21.5988 53.587V54.2031H15.9481C15.1663 54.2031 14.4164 54.512 13.8635 55.0618C13.3106 55.6116 13 56.3573 13 57.1349V58.4605C13 59.2381 13.3106 59.9838 13.8635 60.5336C14.4164 61.0834 15.1663 61.3923 15.9481 61.3923H113.974C114.756 61.3923 115.506 61.0834 116.059 60.5336C116.612 59.9838 116.922 59.2381 116.922 58.4605V57.1349C116.922 56.3573 116.612 55.6116 116.059 55.0618C115.506 54.512 114.756 54.2031 113.974 54.2031Z" fill="#E2E5EA" stroke="#BDC1C7" mask="url(#path-13-inside-1_4498_21420)"/>
<path d="M35.9153 48.2393C33.8043 48.2393 31.7408 47.6168 29.9856 46.4506C28.2305 45.2843 26.8625 43.6267 26.0546 41.6872C25.2468 39.7478 25.0354 37.6137 25.4473 35.5549C25.8591 33.496 26.8756 31.6048 28.3683 30.1204C29.8609 28.6361 31.7627 27.6252 33.8331 27.2157C35.9034 26.8061 38.0494 27.0163 39.9997 27.8196C41.95 28.623 43.6169 29.9834 44.7896 31.7288C45.9624 33.4742 46.5884 35.5263 46.5884 37.6255C46.5852 40.4395 45.4597 43.1373 43.4588 45.1271C41.4579 47.1169 38.745 48.2361 35.9153 48.2393ZM35.9153 27.291C33.8599 27.291 31.8507 27.8971 30.1417 29.0327C28.4327 30.1683 27.1007 31.7823 26.3141 33.6707C25.5276 35.5591 25.3218 37.637 25.7227 39.6417C26.1237 41.6464 27.1135 43.4878 28.5669 44.9331C30.0203 46.3784 31.872 47.3627 33.8879 47.7614C35.9038 48.1602 37.9933 47.9555 39.8922 47.1733C41.7911 46.3911 43.4142 45.0665 44.5561 43.367C45.698 41.6676 46.3075 39.6695 46.3075 37.6255C46.3044 34.8856 45.2085 32.2588 43.2603 30.3214C41.312 28.3839 38.6705 27.2941 35.9153 27.291Z" fill="#3F3D56"/>
<path d="M33.8657 51.4029C38.5431 51.4029 42.3349 47.6322 42.3349 42.9807C42.3349 38.3293 38.5431 34.5586 33.8657 34.5586C29.1883 34.5586 25.3965 38.3293 25.3965 42.9807C25.3965 47.6322 29.1883 51.4029 33.8657 51.4029Z" fill="url(#paint1_linear_4498_21420)"/>
<defs>
<linearGradient id="paint0_linear_4498_21420" x1="51.5334" y1="5.67578" x2="51.5334" y2="55.1016" gradientUnits="userSpaceOnUse">
<stop stop-color="#0033CC"/>
<stop offset="1" stop-color="#0033CC" stop-opacity="0"/>
</linearGradient>
<linearGradient id="paint1_linear_4498_21420" x1="33.8657" y1="34.5586" x2="33.8657" y2="51.4029" gradientUnits="userSpaceOnUse">
<stop stop-color="#3B6BFF"/>
<stop offset="0.453125" stop-color="#A6BCFF"/>
<stop offset="0.84375" stop-color="#E4E9FB"/>
<stop offset="1" stop-color="white"/>
</linearGradient>
</defs>
</svg>
