<svg width="244" height="148" viewBox="0 0 244 148" fill="none" xmlns="http://www.w3.org/2000/svg">
<path d="M110.599 23.7744L110.789 24.5537C117.279 51.2808 143.522 68.279 170.567 63.2733L171.355 63.1273L170.576 63.3166C143.849 69.8071 126.85 96.05 131.856 123.095L132.002 123.883L131.813 123.104C125.322 96.3767 99.0795 79.3785 72.0349 84.3842L71.2463 84.5302L72.0256 84.341C98.7528 77.8505 115.751 51.6075 110.745 24.5629L110.599 23.7744Z" fill="white"/>
<path d="M232.01 50.1593C233.034 54.9486 231.059 60.227 226.42 65.7118C221.787 71.1901 214.556 76.7998 205.249 82.2115C186.64 93.0321 159.836 103.003 129.249 109.542C98.6627 116.082 70.1247 117.943 48.7182 115.677C38.0121 114.544 29.1189 112.382 22.6508 109.277C16.175 106.168 12.2142 102.159 11.1903 97.3697C10.1664 92.5804 12.1415 87.3019 16.78 81.8171C21.4131 76.3389 28.6447 70.7292 37.9515 65.3174C56.5603 54.4969 83.3643 44.5258 113.951 37.9865C144.538 31.4472 173.076 29.5863 194.482 31.8518C205.188 32.9848 214.082 35.1471 220.55 38.252C227.025 41.3606 230.986 45.3699 232.01 50.1593Z" stroke="white"/>
</svg>
