<svg width="65" height="65" viewBox="0 0 65 65" fill="none" xmlns="http://www.w3.org/2000/svg">
<path d="M13.6564 41.0743C13.6564 44.8324 10.5863 47.9024 6.82818 47.9024C3.07003 47.9024 0 44.8324 0 41.0743C0 37.3161 3.07003 34.2461 6.82818 34.2461H13.6564V41.0743Z" fill="#F8FAFC"/>
<path d="M17.0977 41.0743C17.0977 37.3161 20.1677 34.2461 23.9258 34.2461C27.684 34.2461 30.754 37.3161 30.754 41.0743V58.1712C30.754 61.9293 27.684 64.9993 23.9258 64.9993C20.1677 64.9993 17.0977 61.9293 17.0977 58.1712V41.0743Z" fill="#F8FAFC"/>
<path d="M23.9258 13.6564C20.1677 13.6564 17.0977 10.5863 17.0977 6.82818C17.0977 3.07003 20.1677 0 23.9258 0C27.684 0 30.754 3.07003 30.754 6.82818V13.6564H23.9258Z" fill="#F8FAFC"/>
<path d="M23.9251 17.0977C27.6832 17.0977 30.7533 20.1677 30.7533 23.9258C30.7533 27.684 27.6832 30.754 23.9251 30.754H6.82818C3.07003 30.754 0 27.684 0 23.9258C0 20.1677 3.07003 17.0977 6.82818 17.0977H23.9251Z" fill="#F8FAFC"/>
<path d="M51.3438 23.9258C51.3438 20.1677 54.4138 17.0977 58.1719 17.0977C61.9301 17.0977 65.0001 20.1677 65.0001 23.9258C65.0001 27.684 61.9301 30.754 58.1719 30.754H51.3438V23.9258Z" fill="#F8FAFC"/>
<path d="M47.9024 23.9251C47.9024 27.6832 44.8324 30.7533 41.0743 30.7533C37.3161 30.7533 34.2461 27.6832 34.2461 23.9251V6.82818C34.2461 3.07003 37.3161 0 41.0743 0C44.8324 0 47.9024 3.07003 47.9024 6.82818V23.9251Z" fill="#F8FAFC"/>
<path d="M41.0743 51.3438C44.8324 51.3438 47.9024 54.4138 47.9024 58.1719C47.9024 61.9301 44.8324 65.0001 41.0743 65.0001C37.3161 65.0001 34.2461 61.9301 34.2461 58.1719V51.3438H41.0743Z" fill="#F8FAFC"/>
<path d="M41.0743 47.9024C37.3161 47.9024 34.2461 44.8324 34.2461 41.0743C34.2461 37.3161 37.3161 34.2461 41.0743 34.2461H58.1712C61.9293 34.2461 64.9993 37.3161 64.9993 41.0743C64.9993 44.8324 61.9293 47.9024 58.1712 47.9024H41.0743Z" fill="#F8FAFC"/>
</svg>
