<svg width="65" height="65" viewBox="0 0 65 65" fill="none" xmlns="http://www.w3.org/2000/svg">
<path d="M13.6564 41.075C13.6564 44.8331 10.5863 47.9032 6.82818 47.9032C3.07003 47.9032 0 44.8331 0 41.075C0 37.3169 3.07003 34.2468 6.82818 34.2468H13.6564V41.075Z" fill="black"/>
<path d="M17.0969 41.075C17.0969 37.3169 20.167 34.2468 23.9251 34.2468C27.6832 34.2468 30.7533 37.3169 30.7533 41.075V58.1719C30.7533 61.9301 27.6832 65.0001 23.9251 65.0001C20.167 65.0001 17.0969 61.9301 17.0969 58.1719V41.075Z" fill="black"/>
<path d="M23.9251 13.6564C20.167 13.6564 17.0969 10.5863 17.0969 6.82818C17.0969 3.07003 20.167 0 23.9251 0C27.6832 0 30.7533 3.07003 30.7533 6.82818V13.6564H23.9251Z" fill="black"/>
<path d="M23.9251 17.0969C27.6832 17.0969 30.7533 20.167 30.7533 23.9251C30.7533 27.6832 27.6832 30.7533 23.9251 30.7533H6.82818C3.07003 30.7533 0 27.6832 0 23.9251C0 20.167 3.07003 17.0969 6.82818 17.0969H23.9251Z" fill="black"/>
<path d="M51.3436 23.9251C51.3436 20.167 54.4137 17.0969 58.1718 17.0969C61.9299 17.0969 65 20.167 65 23.9251C65 27.6832 61.9299 30.7533 58.1718 30.7533H51.3436V23.9251Z" fill="black"/>
<path d="M47.9031 23.9251C47.9031 27.6832 44.833 30.7533 41.0749 30.7533C37.3167 30.7533 34.2467 27.6832 34.2467 23.9251V6.82818C34.2467 3.07003 37.3167 0 41.0749 0C44.833 0 47.9031 3.07003 47.9031 6.82818V23.9251Z" fill="black"/>
<path d="M41.0749 51.3438C44.833 51.3438 47.9031 54.4138 47.9031 58.1719C47.9031 61.9301 44.833 65.0001 41.0749 65.0001C37.3167 65.0001 34.2467 61.9301 34.2467 58.1719V51.3438H41.0749Z" fill="black"/>
<path d="M41.0749 47.9032C37.3167 47.9032 34.2467 44.8331 34.2467 41.075C34.2467 37.3169 37.3167 34.2468 41.0749 34.2468H58.1718C61.9299 34.2468 65 37.3169 65 41.075C65 44.8331 61.9299 47.9032 58.1718 47.9032H41.0749Z" fill="black"/>
</svg>
