<svg width="244" height="148" viewBox="0 0 244 148" fill="none" xmlns="http://www.w3.org/2000/svg">
<path d="M110.599 23.7751L110.789 24.5544C117.279 51.2816 143.522 68.2797 170.567 63.274L171.355 63.1281L170.576 63.3173C143.849 69.8078 126.85 96.0507 131.856 123.095L132.002 123.884L131.813 123.105C125.322 96.3774 99.0795 79.3793 72.0349 84.385L71.2463 84.5309L72.0256 84.3417C98.7528 77.8512 115.751 51.6083 110.745 24.5637L110.599 23.7751Z" fill="url(#paint0_linear_4471_22094)"/>
<path d="M232.01 50.159C233.034 54.9483 231.059 60.2268 226.42 65.7116C221.787 71.1898 214.555 76.7995 205.249 82.2113C186.64 93.0318 159.836 103.003 129.249 109.542C98.6623 116.082 70.1243 117.942 48.7179 115.677C38.0118 114.544 29.1185 112.382 22.6505 109.277C16.1747 106.168 12.2139 102.159 11.1899 97.3694C10.166 92.5801 12.1411 87.3017 16.7797 81.8169C21.4127 76.3386 28.6443 70.7289 37.9511 65.3172C56.5599 54.4966 83.364 44.5256 113.951 37.9862C144.537 31.4469 173.075 29.5861 194.482 31.8515C205.188 32.9846 214.081 35.1468 220.549 38.2517C227.025 41.3603 230.986 45.3697 232.01 50.159Z" stroke="url(#paint1_linear_4471_22094)"/>
<defs>
<linearGradient id="paint0_linear_4471_22094" x1="110.599" y1="23.7751" x2="132.002" y2="123.884" gradientUnits="userSpaceOnUse">
<stop stop-color="#1E293B"/>
<stop offset="0.510417" stop-color="#253042"/>
<stop offset="1" stop-color="#364153"/>
</linearGradient>
<linearGradient id="paint1_linear_4471_22094" x1="113.846" y1="37.4973" x2="129.354" y2="110.031" gradientUnits="userSpaceOnUse">
<stop stop-color="#1E293B"/>
<stop offset="0.510417" stop-color="#253042"/>
<stop offset="1" stop-color="#364153"/>
</linearGradient>
</defs>
</svg>
