<?xml version="1.0" encoding="utf-8"?>
<!-- Generator: Adobe Illustrator 27.6.1, SVG Export Plug-In . SVG Version: 6.00 Build 0)  -->
<svg version="1.1" id="Layer_1" xmlns="http://www.w3.org/2000/svg" xmlns:xlink="http://www.w3.org/1999/xlink" x="0px" y="0px"
     viewBox="0 0 24 24" style="enable-background:new 0 0 24 24;" xml:space="preserve">
<style type="text/css">
	.st0{fill:#07AB59;}
</style>
    <path class="st0" d="M3,18h18V6H3V18z M1,5c0-0.6,0.4-1,1-1h20c0.6,0,1,0.4,1,1v14c0,0.6-0.4,1-1,1H2c-0.6,0-1-0.4-1-1V5z M9,10
	c0-0.6-0.4-1-1-1s-1,0.4-1,1c0,0.6,0.4,1,1,1S9,10.6,9,10z M11,10c0,1.7-1.3,3-3,3s-3-1.3-3-3c0-1.7,1.3-3,3-3S11,8.3,11,10z M8,16
	c-1,0-1.8,0.4-2.5,1l-1.4-1.4c1-1,2.4-1.6,3.9-1.6c1.5,0,2.9,0.6,3.9,1.6L10.5,17C9.8,16.4,9,16,8,16z M16.2,14.7l4-4l-1.4-1.4
	l-3.3,3.3l-1.8-1.8l-1.4,1.4l2.5,2.5l0.7,0.7L16.2,14.7z"/>
</svg>
