<?xml version="1.0" encoding="utf-8"?>
<!-- Generator: Adobe Illustrator 27.6.1, SVG Export Plug-In . SVG Version: 6.00 Build 0)  -->
<svg version="1.1" id="Layer_1" xmlns="http://www.w3.org/2000/svg" xmlns:xlink="http://www.w3.org/1999/xlink" x="0px" y="0px"
     viewBox="0 0 24 24" style="enable-background:new 0 0 24 24;" xml:space="preserve">
<style type="text/css">
	.st0{fill:#07AB59;}
</style>
    <path class="st0" d="M6,21.5c-1.9,0-3.5-1.6-3.5-3.5s1.6-3.5,3.5-3.5c1.6,0,2.9,1.1,3.4,2.5l5.6,0v-2l2,0V9.2L14.8,7H9v2H3V3h6v2
	h5.8L18,1.8L22.2,6L19,9.2V15l2,0v6h-6v-2l-5.6,0C8.9,20.4,7.6,21.5,6,21.5z M6,16.5c-0.8,0-1.5,0.7-1.5,1.5c0,0.8,0.7,1.5,1.5,1.5
	s1.5-0.7,1.5-1.5C7.5,17.2,6.8,16.5,6,16.5z M19,17h-2v2h2V17z M18,4.6L16.6,6L18,7.4L19.4,6L18,4.6z M7,5H5v2h2V5z"/>
</svg>
