<?xml version="1.0" encoding="utf-8"?>
<!-- Generator: Adobe Illustrator 27.7.0, SVG Export Plug-In . SVG Version: 6.00 Build 0)  -->
<svg version="1.1" id="Layer_1" xmlns="http://www.w3.org/2000/svg" xmlns:xlink="http://www.w3.org/1999/xlink" x="0px" y="0px"
     viewBox="0 0 24 24" style="enable-background:new 0 0 24 24;" xml:space="preserve">
<style type="text/css">
	.st0{fill:#07AB59;}
</style>
    <path class="st0" d="M13,8v8c0,1.7-1.3,3-3,3H7.8c-0.4,1.2-1.5,2-2.8,2c-1.7,0-3-1.3-3-3s1.3-3,3-3c1.3,0,2.4,0.8,2.8,2H10
	c0.6,0,1-0.4,1-1V8c0-1.7,1.3-3,3-3h3V2l5,4l-5,4V7h-3C13.4,7,13,7.4,13,8z M5,19c0.6,0,1-0.4,1-1s-0.4-1-1-1s-1,0.4-1,1
	S4.4,19,5,19z"/>
</svg>
