<?xml version="1.0" encoding="utf-8"?>
<!-- Generator: Adobe Illustrator 27.7.0, SVG Export Plug-In . SVG Version: 6.00 Build 0)  -->
<svg version="1.1" id="Layer_1" xmlns="http://www.w3.org/2000/svg" xmlns:xlink="http://www.w3.org/1999/xlink" x="0px" y="0px"
     viewBox="0 0 24 24" style="enable-background:new 0 0 24 24;" xml:space="preserve">
<style type="text/css">
	.st0{fill:#07AB59;}
</style>
    <g>
	<path class="st0" d="M19.9,13.1l1.5,0.7c0.7,0.3,0.7,0.9,0.1,1.3l-8.3,5.7c-0.3,0.2-0.7,0.3-1.1,0.3c-0.4,0-0.8-0.1-1.1-0.3
		l-8.3-5.7c-0.6-0.4-0.6-1,0.1-1.3l1.5-0.7l6.4,3.3c0.4,0.2,1,0.3,1.5,0.3c0.6,0,1.1-0.1,1.5-0.3L19.9,13.1z"/>
        <path class="st0" d="M19,8.5l2.4,1c0.7,0.3,0.7,0.8,0,1.1l-8.2,4.2c-0.3,0.2-0.8,0.3-1.2,0.3s-0.9-0.1-1.2-0.3l-8.2-4.2
		C2,10.2,2,9.7,2.7,9.5l2.4-1l5.5,1.9c0.4,0.1,0.9,0.2,1.5,0.2c0.6,0,1.1-0.1,1.5-0.2L19,8.5z"/>
        <path class="st0" d="M12,2.8c0.5,0,0.9,0.1,1.3,0.1l8,2.2c0.7,0.2,0.7,0.5,0,0.8l-8.1,2.8c-0.3,0.1-0.8,0.2-1.3,0.2
		s-0.9-0.1-1.3-0.2L2.7,5.9C2,5.7,2,5.3,2.7,5.1l8-2.2C11.1,2.9,11.6,2.8,12,2.8z"/>
</g>
</svg>
