<?xml version="1.0" encoding="utf-8"?>
<!-- Generator: Adobe Illustrator 27.7.0, SVG Export Plug-In . SVG Version: 6.00 Build 0)  -->
<svg version="1.1" id="Layer_1" xmlns="http://www.w3.org/2000/svg" xmlns:xlink="http://www.w3.org/1999/xlink" x="0px" y="0px"
     viewBox="0 0 1280 1280" style="enable-background:new 0 0 1280 1280;" xml:space="preserve">
<style type="text/css">
	.st0{fill:#FFFFFF;}
	.st1{fill:#07AB59;}
</style>
    <g>
	<path class="st0" d="M195,178.2c0,2.7,0,4.8,0,6.9c0,215.7,0,431.3,0,647c0,1.5-0.2,3,0.1,4.5c4.9,27.5,27.1,47.3,54.5,47.3
		c256.3-0.1,512.7,0,769,0c29,0,49.3-15.6,56.3-43.8c44.9-179.6,89.8-359.1,134.6-538.7c2.9-11.7,2.8-23.6-1.8-34.9
		c-9.1-22.4-27.8-34.1-50.7-34.1c-246.3-0.2-492.6-0.1-739-0.1c-1.8,0-3.5,0-5.4,0c0,36.6,0,72.5,0,108.9c225,0,449.7,0,674.9,0
		C1051.1,486,1015,630.5,979,774.6c-225.4,0-450.1,0-674.8,0c-0.1-0.7-0.2-1-0.2-1.4c-0.3-218.3-0.7-436.5-1-654.8
		c0-18.2-15.9-40.5-33.8-45.2c-8.9-2.3-18.4-3.9-27.6-3.9C191.9,69,142,69.2,92.2,69.2c-1.8,0-3.5,0-5.3,0c0,36.6,0,72.7,0,109
		c18.2,0,36,0,53.9,0C158.6,178.2,176.4,178.2,195,178.2z M303.8,993c-58.1-3-109.8,49-109,108.5c0.9,61.5,50,107,104.7,108.2
		c68.1,1.6,109.8-51.3,112.6-101.8C416,1038.8,358.9,990.1,303.8,993z M954.2,993c-59.1-2-107,48.8-108,104.5
		c-1.2,65.9,50.5,110.5,105,112.3c31.1,1,58.4-9.9,80.7-32c24.5-24.2,33.6-54.2,31.2-87.9C1059.7,1043.5,1018.7,991.3,954.2,993z"/>
        <path class="st1" d="M195,178.2c-18.6,0-36.4,0-54.2,0c-17.8,0-35.6,0-53.9,0c0-36.3,0-72.4,0-109c1.8,0,3.5,0,5.3,0
		c49.8,0,99.7-0.2,149.5,0.2c9.2,0.1,18.6,1.6,27.6,3.9c17.9,4.7,33.8,27,33.8,45.2c0.3,218.3,0.6,436.5,1,654.8
		c0,0.3,0.1,0.7,0.2,1.4c224.7,0,449.4,0,674.8,0c36-144.1,72.1-288.6,108.4-433.6c-225.2,0-449.9,0-674.9,0c0-36.4,0-72.3,0-108.9
		c1.9,0,3.7,0,5.4,0c246.3,0,492.6-0.1,739,0.1c23,0,41.6,11.8,50.7,34.1c4.6,11.3,4.8,23.2,1.8,34.9
		c-44.8,179.6-89.7,359.2-134.6,538.7c-7,28.1-27.3,43.8-56.3,43.8c-256.3,0-512.7,0-769,0c-27.4,0-49.6-19.8-54.5-47.3
		c-0.3-1.5-0.1-3-0.1-4.5c0-215.7,0-431.3,0-647C195,183,195,180.8,195,178.2z"/>
        <path class="st1" d="M303.8,993c55.1-2.9,112.1,45.8,108.3,114.9c-2.8,50.5-44.5,103.4-112.6,101.8
		c-54.6-1.3-103.8-46.7-104.7-108.2C194,1042,245.7,990,303.8,993z"/>
        <path class="st1" d="M954.2,993c64.5-1.7,105.5,50.5,108.9,96.9c2.5,33.8-6.6,63.7-31.2,87.9c-22.3,22-49.5,33-80.7,32
		c-54.5-1.8-106.3-46.4-105-112.3C847.2,1041.8,895.1,991,954.2,993z"/>
</g>
</svg>
