<?xml version="1.0" encoding="utf-8"?>
<!-- Generator: Adobe Illustrator 27.7.0, SVG Export Plug-In . SVG Version: 6.00 Build 0)  -->
<svg version="1.1" id="Layer_1" xmlns="http://www.w3.org/2000/svg" xmlns:xlink="http://www.w3.org/1999/xlink" x="0px" y="0px"
     viewBox="0 0 24 24" style="enable-background:new 0 0 24 24;" xml:space="preserve">
<style type="text/css">
	.st0{fill:#07AB59;}
</style>
    <path class="st0" d="M20,13c0,2.2-0.9,4.2-2.3,5.7l1.4,1.4c1.8-1.8,2.9-4.3,2.9-7.1c0-5.5-4.5-10-10-10C6.5,3,2,7.5,2,13
	c0,2.8,1.1,5.3,2.9,7.1l1.4-1.4C4.9,17.2,4,15.2,4,13c0-4.4,3.6-8,8-8C16.4,5,20,8.6,20,13z M15.3,8.3l-4.5,4.5l1.4,1.4l4.5-4.5
	L15.3,8.3z"/>
</svg>
