<?xml version="1.0" encoding="UTF-8"?>
<svg id="Layer_1" data-name="Layer 1" xmlns="http://www.w3.org/2000/svg" version="1.1" viewBox="0 0 256 256">
    <defs>
        <style>
            .cls-1 {
            fill: #07ab59;
            stroke-width: 0px;
            }
        </style>
    </defs>
    <path class="cls-1" d="M239.3,92.3v22.3h-12.9c-.1,1.2-.3,2.3-.4,3.4-.2,1.9-.2,3.7-.4,5.6-.2,2.7-.5,5.4-.8,8.1-.2,1.7-.3,3.4-.4,5.1-.2,2.9-.5,5.8-.8,8.7-.1,1.8-.2,3.6-.4,5.4-.2,2-.4,4-.6,6.1-.2,1.8-.3,3.6-.4,5.4-.2,2.8-.5,5.6-.8,8.4-.2,1.8-.3,3.5-.4,5.3-.2,2.8-.5,5.7-.8,8.5-.1,1.7-.3,3.5-.4,5.2-.2,2.9-.5,5.7-.8,8.6-.1,1.7-.2,3.4-.4,5.1-.2,2.7-.5,5.5-.8,8.2-.1,1.6,0,3.3-.4,4.8-1,5.3-5.4,8.9-10.8,9-.2,0-.4,0-.7,0-52.1,0-104.2,0-156.4,0-5.3,0-9.3-3-11.1-7.4-.4-1.1-.5-2.4-.7-3.6-.2-2-.4-4-.6-5.9,0-.9-.2-1.8-.2-2.6-.2-2.7-.3-5.4-.6-8.1-.2-2.6-.5-5.3-.8-7.9-.2-1.9-.2-3.9-.4-5.8-.2-2.7-.5-5.3-.8-8-.2-1.9-.2-3.7-.4-5.6-.2-1.9-.4-3.9-.6-5.8,0-.9-.1-1.8-.2-2.7-.3-3-.5-5.9-.8-8.9-.1-1.9-.2-3.7-.4-5.6-.2-1.9-.4-3.9-.6-5.8,0-.9-.1-1.8-.2-2.7-.2-2.7-.4-5.4-.6-8.1-.2-2.2-.4-4.5-.6-6.7-.2-2.6-.5-5.3-.8-7.9,0-.6,0-1.1,0-1.8h-12.9v-22.3h1.1c11.9,0,23.8,0,35.8,0,.9,0,1.3-.3,1.8-1,11.5-19.9,23-39.8,34.4-59.7.2-.4.4-.7.7-1.2,6.4,3.7,12.8,7.4,19.3,11.1-9.8,16.9-19.5,33.7-29.2,50.6h94.7c-9.7-16.9-19.4-33.7-29.2-50.6,6.5-3.7,12.8-7.4,19.3-11.2,1.4,2.4,2.7,4.7,4.1,7,10.4,18,20.8,36,31.2,54,.4.6.7.8,1.4.8,11.9,0,23.9,0,35.8,0h1.3ZM52.2,114.7c0,.2,0,.4,0,.5.2,2.5.4,5,.6,7.6,0,.8.1,1.6.2,2.5.2,2,.4,4,.6,5.9.2,1.7.2,3.4.4,5.1.2,2.1.4,4.2.6,6.3.1,1.9.2,3.7.4,5.6.2,2,.4,4,.6,5.9.1,1.7.3,3.4.4,5.1.2,2.1.4,4.3.6,6.4.1,1.9.2,3.7.4,5.6.2,2,.4,4,.6,5.9.1,1.7.3,3.4.4,5.1.2,2.8.5,5.7.8,8.5.2,1.8.3,3.5.4,5.3.2,2,.4,4,.5,6.1,0,1.3,0,1.3,1.3,1.3,44.9,0,89.8,0,134.7,0,.3,0,.7,0,1,0,0-1,.2-1.8.3-2.7.1-1.9.2-3.9.4-5.8.2-2.6.5-5.3.8-7.9.2-2.2.4-4.5.6-6.7.2-2.7.4-5.4.6-8.1,0-.9.1-1.8.2-2.7.2-1.9.4-3.9.6-5.8.2-1.9.2-3.7.4-5.6.2-3,.5-5.9.8-8.9,0-.9.1-1.8.2-2.7.2-1.9.4-3.9.6-5.8.2-1.9.2-3.7.4-5.6.2-2.7.5-5.3.8-8,.2-1.9.2-3.9.4-5.8,0-1,.3-2.1.4-3.1.1-1.2.1-2.4.2-3.6H52.2Z"/>
    <path class="cls-1" d="M117,136.9h22.2v44.4h-22.2v-44.4Z"/>
    <path class="cls-1" d="M183.6,181.3h-22.2v-44.4h22.2v44.4Z"/>
    <path class="cls-1" d="M72.5,136.9h22.2v44.4h-22.2v-44.4Z"/>
</svg>
