<?xml version="1.0" encoding="utf-8"?>
<!-- Generator: Adobe Illustrator 27.7.0, SVG Export Plug-In . SVG Version: 6.00 Build 0)  -->
<svg version="1.1" id="Layer_1" xmlns="http://www.w3.org/2000/svg" xmlns:xlink="http://www.w3.org/1999/xlink" x="0px" y="0px"
     viewBox="0 0 24 24" style="enable-background:new 0 0 24 24;" xml:space="preserve">
<style type="text/css">
	.st0{fill:#07AB59;}
</style>
    <path class="st0" d="M11.1,1.6L21,3l1.4,9.9l-9.2,9.2c-0.4,0.4-1,0.4-1.4,0l-9.9-9.9c-0.4-0.4-0.4-1,0-1.4L11.1,1.6z M11.8,3.7
	L4,11.5l8.5,8.5l7.8-7.8l-1.1-7.4L11.8,3.7z M13.9,10.1c-0.8-0.8-0.8-2,0-2.8c0.8-0.8,2-0.8,2.8,0c0.8,0.8,0.8,2,0,2.8
	C16,10.9,14.7,10.9,13.9,10.1z"/>
</svg>
