<?xml version="1.0" encoding="utf-8"?>
<!-- Generator: Adobe Illustrator 27.7.0, SVG Export Plug-In . SVG Version: 6.00 Build 0)  -->
<svg version="1.1" id="Layer_1" xmlns="http://www.w3.org/2000/svg" xmlns:xlink="http://www.w3.org/1999/xlink" x="0px" y="0px"
     viewBox="0 0 24 24" style="enable-background:new 0 0 24 24;" xml:space="preserve">
<style type="text/css">
	.st0{fill:#07AB59;}
</style>
    <path class="st0" d="M19.4,15.1c1.5-3.7,0.2-8-3.4-10c-2.6-1.5-5.6-1.4-8,0L7,3.3c3-1.7,6.8-1.8,10,0c4.5,2.6,6.2,8.1,4.1,12.8
	l1.3,0.8l-4.2,2.2l-0.2-4.7L19.4,15.1z M4.6,8.9c-1.5,3.7-0.2,8,3.4,10c2.6,1.5,5.6,1.4,8,0l1,1.7c-3,1.7-6.8,1.8-10,0
	c-4.5-2.6-6.2-8.1-4.1-12.8L1.5,7.1l4.2-2.2l0.2,4.7L4.6,8.9z M8.5,14H14c0.3,0,0.5-0.2,0.5-0.5c0-0.3-0.2-0.5-0.5-0.5h-4
	c-1.4,0-2.5-1.1-2.5-2.5C7.5,9.1,8.6,8,10,8h1V7h2v1h2.5v2H10c-0.3,0-0.5,0.2-0.5,0.5c0,0.3,0.2,0.5,0.5,0.5h4
	c1.4,0,2.5,1.1,2.5,2.5c0,1.4-1.1,2.5-2.5,2.5h-1v1h-2v-1H8.5V14z"/>
</svg>
