<?xml version="1.0" encoding="utf-8"?>
<!-- Generator: Adobe Illustrator 27.7.0, SVG Export Plug-In . SVG Version: 6.00 Build 0)  -->
<svg version="1.1" id="Layer_1" xmlns="http://www.w3.org/2000/svg" xmlns:xlink="http://www.w3.org/1999/xlink" x="0px" y="0px"
     viewBox="0 0 1280 1280" style="enable-background:new 0 0 1280 1280;" xml:space="preserve">
<style type="text/css">
	.st0{fill:none;}
	.st1{fill:#07AB59;stroke:#07AB59;stroke-width:28;stroke-miterlimit:10;}
	.st2{fill:#07AB59;}
</style>
    <image style="overflow:visible;" width="1280" height="1280" xlink:href="../ICON FOLDER PNGS/CATALOG/CATALOG GREEN.png"  transform="matrix(0.36 0 0 0.36 2045.877 178.648)">
</image>
    <g>
	<rect x="73.9" y="12" class="st0" width="1132.3" height="1132.3"/>
</g>
    <path class="st1" d="M392.5,861.5l164.3-284.7c4.9-8.5,15.7-11.4,24.2-6.5c8.5,4.9,11.4,15.7,6.5,24.2L423.2,879.2
	c-3.3,5.7-9.2,8.8-15.3,8.8c-3,0-6-0.8-8.8-2.4C390.5,880.8,387.6,869.9,392.5,861.5z M440.2,683c-37.2,0-67.5-30.3-67.5-67.5
	c0-37.2,30.3-67.5,67.5-67.5s67.5,30.3,67.5,67.5C507.7,652.7,477.4,683,440.2,683z M440.2,647.6c17.7,0,32.1-14.4,32.1-32.1
	s-14.4-32.1-32.1-32.1c-17.7,0-32.1,14.4-32.1,32.1S422.5,647.6,440.2,647.6z M472.3,840.4c0-37.2,30.3-67.5,67.5-67.5
	s67.5,30.3,67.5,67.5c0,37.2-30.3,67.5-67.5,67.5S472.3,877.7,472.3,840.4z M507.7,840.4c0,17.7,14.4,32.1,32.1,32.1
	s32.1-14.4,32.1-32.1c0-17.7-14.4-32.1-32.1-32.1S507.7,822.7,507.7,840.4z M630.7,1109.3c0,9.8-7.9,17.7-17.7,17.7H224.6
	c-29.3,0-53.1-23.8-53.1-53.1v-690c0-29.3,23.8-53.1,53.1-53.1h132.7v-45.2c0-73.2,59.5-132.7,132.7-132.7s132.7,59.5,132.7,132.7
	v45.2h132.7c29.3,0,53.1,23.8,53.1,53.1l-0.8,223.6c0,9.8-7.1-29.9-16.8-29.9c-9.8,0-17.7,102-17.7-17.7V425.2
	c0-51-7.9-58.9-17.7-58.9H622.7v34.4c0,9.8-7.9,17.7-17.7,17.7c-9.8,0-17.7-7.9-17.7-17.7v-34.4H392.7v34.4
	c0,9.8-7.9,17.7-17.7,17.7c-9.8,0-17.7-7.9-17.7-17.7v-34.4H224.6c-9.8,0-17.7,7.9-17.7,17.7v52.1h512.3c9.8,0,17.7,7.9,17.7,17.7
	c0,9.8-7.9,17.7-17.7,17.7H207v602.5c0,9.8,7.9,17.7,17.7,17.7h388.4C622.8,1091.6,630.7,1099.5,630.7,1109.3z M392.7,330.9h194.6
	v-45.2c0-53.7-43.7-97.3-97.3-97.3s-97.3,43.7-97.3,97.3V330.9z M1108.4,719.1v70.8c0,19.5-15.9,35.4-35.4,35.4V1073
	c0,29.3-23.8,53.1-53.1,53.1H701.5c-29.3,0-53.1-23.8-53.1-53.1V825.3c-19.5,0-35.4-15.9-35.4-35.4v-70.8
	c0-19.5,15.9-35.4,35.4-35.4h9.6c3.7-53.9,40.6-88.5,96.6-88.5c25.2,0,53.4,13.2,83.8,39.3c7.1-2.4,14.5-4,22.4-4
	c7.9,0,15.3,1.6,22.4,4c30.4-26.1,58.6-39.3,83.8-39.3c56,0,92.8,34.6,96.6,88.5h9.6C1092.6,683.8,1108.4,699.6,1108.4,719.1z
	 M966.9,630.7c-14.5,0-32.7,8.5-53,24.5c7.1,8.1,12.3,17.8,15.1,28.6h99.3C1026.2,662.9,1015.2,630.7,966.9,630.7z M860.7,666.1
	c-13,0-24.3,7.2-30.5,17.7h60.9C885.1,673.2,873.8,666.1,860.7,666.1z M693.1,683.8h99.3c2.8-10.8,8-20.4,15.1-28.6
	c-20.4-16-38.6-24.5-53-24.5C706.3,630.7,695.3,662.9,693.1,683.8z M1037.7,825.3H683.8V1073c0,9.8,7.9,17.7,17.7,17.7H1020
	c9.8,0,17.7-7.9,17.7-17.7V825.3z M1073.1,789.9l0-70.8H648.4v70.8H1073.1z"/>
    <rect x="343" y="375.5" class="st2" width="65.1" height="82.2"/>
    <rect x="571.9" y="362.1" class="st2" width="67" height="82.2"/>
    <rect x="552.4" y="995.8" transform="matrix(-1.836970e-16 1 -1 -1.836970e-16 1692.9644 525.105)" class="st2" width="63.1" height="226.6"/>
    <rect x="684.5" y="389.5" transform="matrix(-1.836970e-16 1 -1 -1.836970e-16 1170.2244 -262.5391)" class="st2" width="63.8" height="128.7"/>
</svg>
